<svg id="success" xmlns="http://www.w3.org/2000/svg" width="114.134" height="114.134" viewBox="0 0 114.134 114.134">
  <path id="Path_696" data-name="Path 696" d="M57.067,0a57.067,57.067,0,1,0,57.067,57.067A57.131,57.131,0,0,0,57.067,0Zm0,109.744a52.677,52.677,0,1,1,52.677-52.677A52.739,52.739,0,0,1,57.067,109.744Z" fill="#76bd39"/>
  <path id="Path_697" data-name="Path 697" d="M69.62,15.738,35.887,53.688,15.565,37.43a2.195,2.195,0,0,0-2.741,3.428L34.772,58.417a2.2,2.2,0,0,0,3.014-.257L72.9,18.653a2.2,2.2,0,0,0-3.284-2.915Z" transform="translate(14.338 17.923)" fill="#76bd39"/>
</svg>
