<?xml version="1.0" encoding="UTF-8"?>
<svg xmlns="http://www.w3.org/2000/svg" xmlns:xlink="http://www.w3.org/1999/xlink" width="826.47pt" height="331.02pt" viewBox="0 0 826.47 331.02" version="1.1">
<defs>
<clipPath id="clip1">
  <path d="M 0 54 L 826.46875 54 L 826.46875 331.019531 L 0 331.019531 Z M 0 54 "/>
</clipPath>
</defs>
<g id="surface1">
<g clip-path="url(#clip1)" clip-rule="nonzero">
<path style=" stroke:none;fill-rule:evenodd;fill:rgb(92.498779%,0%,54.899597%);fill-opacity:1;" d="M 51.09375 54.226563 L 775.371094 54.226563 C 803.480469 54.226563 826.46875 74.777344 826.46875 99.894531 L 826.46875 285.347656 C 826.46875 310.46875 803.480469 331.019531 775.371094 331.019531 L 51.09375 331.019531 C 22.996094 331.019531 0 310.46875 0 285.347656 L 0 99.894531 C 0 74.777344 22.996094 54.226563 51.09375 54.226563 "/>
<path style=" stroke:none;fill-rule:nonzero;fill:rgb(94.900513%,39.99939%,21.176147%);fill-opacity:1;" d="M 51.09375 54.226563 L 775.371094 54.226563 C 803.480469 54.226563 826.46875 74.777344 826.46875 99.894531 L 826.46875 285.347656 C 826.46875 310.46875 803.480469 331.019531 775.371094 331.019531 L 51.09375 331.019531 C 22.996094 331.019531 0 310.46875 0 285.347656 L 0 99.894531 C 0 74.777344 22.996094 54.226563 51.09375 54.226563 "/>
</g>
<path style=" stroke:none;fill-rule:nonzero;fill:rgb(1.568604%,40.783691%,21.960449%);fill-opacity:1;" d="M 221.527344 295.140625 L 221.527344 291.441406 C 224.152344 292.746094 226.449219 293.402344 228.410156 293.402344 C 229.5625 293.402344 230.519531 293.089844 231.285156 292.460938 C 232.042969 291.835938 232.433594 291.050781 232.433594 290.113281 C 232.433594 288.730469 231.367188 287.589844 229.21875 286.695313 L 226.871094 285.695313 C 223.390625 284.25 221.648438 282.164063 221.648438 279.449219 C 221.648438 277.519531 222.339844 275.996094 223.710938 274.882813 C 225.078125 273.773438 226.960938 273.214844 229.34375 273.214844 C 230.585938 273.214844 232.117188 273.386719 233.945313 273.726563 L 234.78125 273.890625 L 234.78125 277.246094 C 232.53125 276.582031 230.738281 276.25 229.402344 276.25 C 228.234375 276.25 227.300781 276.503906 226.59375 277.015625 C 225.886719 277.527344 225.535156 278.207031 225.535156 279.066406 C 225.535156 280.285156 226.53125 281.300781 228.484375 282.128906 L 230.425781 282.945313 C 232.625 283.878906 234.179688 284.855469 235.09375 285.890625 C 236.011719 286.917969 236.464844 288.199219 236.464844 289.742188 C 236.464844 291.695313 235.695313 293.300781 234.152344 294.550781 C 232.605469 295.804688 230.640625 296.433594 228.234375 296.433594 C 226.394531 296.433594 224.152344 296 221.527344 295.140625 Z M 255.160156 293.09375 C 252.746094 295.320313 250.421875 296.433594 248.183594 296.433594 C 246.34375 296.433594 244.816406 295.851563 243.601563 294.699219 C 242.390625 293.546875 241.777344 292.097656 241.777344 290.335938 C 241.777344 287.910156 242.804688 286.039063 244.839844 284.746094 C 246.882813 283.4375 249.808594 282.789063 253.625 282.789063 L 254.566406 282.789063 L 254.566406 280.109375 C 254.566406 277.53125 253.226563 276.25 250.539063 276.25 C 248.449219 276.25 246.179688 276.90625 243.703125 278.207031 L 243.703125 274.863281 C 246.425781 273.769531 248.972656 273.214844 251.375 273.214844 C 253.839844 273.214844 255.660156 273.78125 256.835938 274.902344 C 258.015625 276.03125 258.59375 277.761719 258.59375 280.109375 L 258.59375 290.175781 C 258.59375 292.480469 259.3125 293.632813 260.722656 293.632813 C 260.898438 293.632813 261.160156 293.609375 261.503906 293.546875 L 261.792969 295.777344 C 260.878906 296.21875 259.863281 296.433594 258.761719 296.433594 C 256.878906 296.433594 255.679688 295.320313 255.160156 293.09375 Z M 254.566406 290.910156 L 254.566406 285.160156 L 253.28125 285.125 C 251.035156 285.125 249.234375 285.539063 247.863281 286.367188 C 246.496094 287.203125 245.808594 288.300781 245.808594 289.683594 C 245.808594 290.652344 246.160156 291.46875 246.832031 292.132813 C 247.519531 292.804688 248.34375 293.136719 249.328125 293.136719 C 251.007813 293.136719 252.757813 292.402344 254.566406 290.910156 Z M 271.441406 295.925781 L 263.175781 273.707031 L 267.210938 273.707031 L 273.660156 290.984375 L 280.488281 273.707031 L 284.253906 273.707031 L 275.472656 295.925781 Z M 304.800781 295.210938 C 302.097656 296.019531 299.785156 296.433594 297.863281 296.433594 C 294.582031 296.433594 291.90625 295.34375 289.847656 293.171875 C 287.789063 290.992188 286.757813 288.175781 286.757813 284.707031 C 286.757813 281.339844 287.671875 278.582031 289.484375 276.425781 C 291.3125 274.269531 293.640625 273.195313 296.472656 273.195313 C 299.164063 273.195313 301.242188 274.152344 302.703125 276.066406 C 304.171875 277.980469 304.914063 280.699219 304.914063 284.21875 L 304.882813 285.449219 L 290.867188 285.449219 C 291.460938 290.726563 294.039063 293.367188 298.621094 293.367188 C 300.308594 293.367188 302.359375 292.917969 304.800781 292.015625 Z M 291.054688 282.421875 L 300.855469 282.421875 C 300.855469 278.292969 299.316406 276.222656 296.238281 276.222656 C 293.128906 276.222656 291.402344 278.292969 291.054688 282.421875 Z M 311.039063 295.140625 L 311.039063 291.441406 C 313.675781 292.746094 315.972656 293.402344 317.917969 293.402344 C 319.082031 293.402344 320.042969 293.089844 320.808594 292.460938 C 321.5625 291.835938 321.953125 291.050781 321.953125 290.113281 C 321.953125 288.730469 320.882813 287.589844 318.742188 286.695313 L 316.390625 285.695313 C 312.910156 284.25 311.171875 282.164063 311.171875 279.449219 C 311.171875 277.519531 311.859375 275.996094 313.21875 274.882813 C 314.601563 273.773438 316.476563 273.214844 318.863281 273.214844 C 320.101563 273.214844 321.640625 273.386719 323.46875 273.726563 L 324.304688 273.890625 L 324.304688 277.246094 C 322.058594 276.582031 320.269531 276.25 318.929688 276.25 C 317.761719 276.25 316.808594 276.503906 316.113281 277.015625 C 315.410156 277.527344 315.058594 278.207031 315.058594 279.066406 C 315.058594 280.285156 316.042969 281.300781 318.007813 282.128906 L 319.945313 282.945313 C 322.140625 283.878906 323.691406 284.855469 324.617188 285.890625 C 325.523438 286.917969 325.984375 288.199219 325.984375 289.742188 C 325.984375 291.695313 325.21875 293.300781 323.675781 294.550781 C 322.128906 295.804688 320.15625 296.433594 317.761719 296.433594 C 315.910156 296.433594 313.675781 296 311.039063 295.140625 Z M 347.757813 304.003906 L 351.363281 295.921875 L 342.78125 273.707031 L 347.140625 273.707031 L 353.488281 290.4375 L 360.28125 273.707031 L 364.09375 273.707031 L 351.96875 304.003906 Z M 377.210938 296.433594 C 373.953125 296.433594 371.359375 295.390625 369.464844 293.304688 C 367.558594 291.21875 366.613281 288.390625 366.613281 284.816406 C 366.613281 281.238281 367.558594 278.417969 369.464844 276.335938 C 371.359375 274.261719 373.953125 273.214844 377.210938 273.214844 C 380.464844 273.214844 383.042969 274.261719 384.945313 276.335938 C 386.851563 278.417969 387.800781 281.238281 387.800781 284.816406 C 387.800781 288.390625 386.851563 291.21875 384.945313 293.304688 C 383.042969 295.390625 380.464844 296.433594 377.210938 296.433594 Z M 377.210938 293.402344 C 379.21875 293.402344 380.761719 292.65625 381.875 291.15625 C 382.980469 289.652344 383.53125 287.535156 383.53125 284.816406 C 383.53125 282.089844 382.980469 279.976563 381.875 278.488281 C 380.761719 276.992188 379.21875 276.25 377.210938 276.25 C 375.195313 276.25 373.652344 276.992188 372.558594 278.488281 C 371.449219 279.976563 370.902344 282.089844 370.902344 284.816406 C 370.902344 287.535156 371.449219 289.652344 372.558594 291.15625 C 373.652344 292.65625 375.195313 293.402344 377.210938 293.402344 Z M 408 295.925781 L 408 291.75 C 405.855469 294.867188 403.265625 296.433594 400.207031 296.433594 C 398.273438 296.433594 396.730469 295.828125 395.582031 294.605469 C 394.4375 293.378906 393.867188 291.734375 393.867188 289.660156 L 393.867188 273.707031 L 397.894531 273.707031 L 397.894531 288.351563 C 397.894531 290.015625 398.136719 291.203125 398.621094 291.90625 C 399.105469 292.609375 399.910156 292.957031 401.046875 292.957031 C 403.503906 292.957031 405.8125 291.339844 408 288.109375 L 408 273.707031 L 412.027344 273.707031 L 412.027344 295.925781 Z M 433.367188 295.925781 L 433.367188 273.707031 L 437.394531 273.707031 L 437.394531 277.878906 C 439.355469 274.773438 441.890625 273.214844 444.964844 273.214844 C 447.945313 273.214844 449.96875 274.773438 451.042969 277.878906 C 452.949219 274.761719 455.429688 273.195313 458.484375 273.195313 C 460.433594 273.195313 461.953125 273.773438 463.03125 274.929688 C 464.117188 276.082031 464.671875 277.691406 464.671875 279.753906 L 464.671875 295.925781 L 460.617188 295.925781 L 460.617188 280.394531 C 460.617188 277.859375 459.605469 276.589844 457.601563 276.589844 C 455.523438 276.589844 453.335938 278.070313 451.042969 281.027344 L 451.042969 295.925781 L 446.992188 295.925781 L 446.992188 280.394531 C 446.992188 277.84375 445.972656 276.5625 443.925781 276.5625 C 441.890625 276.5625 439.707031 278.050781 437.394531 281.027344 L 437.394531 295.925781 Z M 481.320313 296.433594 C 478.058594 296.433594 475.480469 295.390625 473.574219 293.304688 C 471.675781 291.21875 470.726563 288.390625 470.726563 284.816406 C 470.726563 281.238281 471.675781 278.417969 473.574219 276.335938 C 475.480469 274.261719 478.058594 273.214844 481.320313 273.214844 C 484.574219 273.214844 487.164063 274.261719 489.0625 276.335938 C 490.96875 278.417969 491.917969 281.238281 491.917969 284.816406 C 491.917969 288.390625 490.96875 291.21875 489.0625 293.304688 C 487.164063 295.390625 484.574219 296.433594 481.320313 296.433594 Z M 481.320313 293.402344 C 483.328125 293.402344 484.875 292.65625 485.984375 291.15625 C 487.089844 289.652344 487.648438 287.535156 487.648438 284.816406 C 487.648438 282.089844 487.089844 279.976563 485.984375 278.488281 C 484.875 276.992188 483.328125 276.25 481.320313 276.25 C 479.3125 276.25 477.761719 276.992188 476.671875 278.488281 C 475.570313 279.976563 475.023438 282.089844 475.023438 284.816406 C 475.023438 287.535156 475.570313 289.652344 476.671875 291.15625 C 477.761719 292.65625 479.3125 293.402344 481.320313 293.402344 Z M 498.21875 295.925781 L 498.21875 273.707031 L 502.246094 273.707031 L 502.246094 277.878906 C 504.382813 274.773438 506.984375 273.214844 510.066406 273.214844 C 512.011719 273.214844 513.539063 273.824219 514.675781 275.046875 C 515.820313 276.269531 516.398438 277.910156 516.398438 279.964844 L 516.398438 295.925781 L 512.367188 295.925781 L 512.367188 281.277344 C 512.367188 279.628906 512.117188 278.449219 511.640625 277.746094 C 511.160156 277.039063 510.355469 276.695313 509.234375 276.695313 C 506.761719 276.695313 504.4375 278.308594 502.246094 281.535156 L 502.246094 295.925781 Z M 540.515625 295.210938 C 537.804688 296.019531 535.492188 296.433594 533.582031 296.433594 C 530.289063 296.433594 527.613281 295.34375 525.550781 293.171875 C 523.496094 290.992188 522.46875 288.175781 522.46875 284.707031 C 522.46875 281.339844 523.371094 278.582031 525.195313 276.425781 C 527.027344 274.269531 529.347656 273.195313 532.183594 273.195313 C 534.878906 273.195313 536.949219 274.152344 538.421875 276.066406 C 539.882813 277.980469 540.617188 280.699219 540.617188 284.21875 L 540.597656 285.449219 L 526.585938 285.449219 C 527.171875 290.726563 529.753906 293.367188 534.324219 293.367188 C 536.015625 293.367188 538.070313 292.917969 540.515625 292.015625 Z M 526.757813 282.421875 L 536.570313 282.421875 C 536.570313 278.292969 535.023438 276.222656 531.945313 276.222656 C 528.84375 276.222656 527.117188 278.292969 526.757813 282.421875 Z M 548.855469 304.003906 L 552.457031 295.921875 L 543.867188 273.707031 L 548.222656 273.707031 L 554.589844 290.4375 L 561.375 273.707031 L 565.1875 273.707031 L 553.058594 304.003906 L 548.855469 304.003906 "/>
<path style=" stroke:none;fill-rule:evenodd;fill:rgb(1.568604%,40.783691%,21.960449%);fill-opacity:1;" d="M 542.273438 53.089844 C 539.539063 57.183594 523.28125 71.828125 518.105469 77.570313 C 510.832031 85.648438 503.179688 95.902344 497.050781 105.171875 C 490.832031 114.574219 483.773438 125.203125 478.695313 135.460938 C 476.75 139.382813 463.390625 166.511719 462.0625 167.484375 C 462.0625 160.75 452.699219 139.042969 450.074219 133.347656 C 446.265625 125.082031 438.84375 109.335938 427.320313 109.335938 L 422.902344 109.335938 C 415.980469 109.335938 403.945313 116.46875 403.945313 123.242188 L 403.945313 127.03125 C 403.945313 127.054688 416.40625 148.261719 418.058594 152.113281 C 421.074219 159.199219 426.742188 174.164063 427.960938 182.015625 C 429.730469 193.355469 432.289063 203.273438 433.6875 216.101563 C 434.808594 226.453125 434.207031 244.589844 445.007813 244.589844 L 450.695313 244.589844 C 455.085938 244.589844 462.570313 241.136719 465.484375 239.167969 C 470.886719 235.527344 471.316406 232.90625 473.804688 226.632813 C 477.742188 216.675781 481.667969 207.40625 485.859375 197.617188 C 494.445313 177.578125 503.160156 160.148438 512.582031 141.566406 C 527.207031 112.710938 562.03125 67.714844 589.644531 53.089844 C 596.222656 47.378906 614.757813 37.484375 624.007813 33.75 C 632.902344 30.164063 657.238281 23.359375 657.238281 13.273438 L 657.238281 12.644531 C 657.238281 4.195313 651.03125 0 642.703125 0 L 639.546875 0 C 630.796875 0 594.695313 18.113281 586.699219 22.324219 C 579.039063 26.355469 570.375 32.035156 563.5 37.039063 C 558.019531 41.035156 546.84375 50.667969 542.273438 53.089844 "/>
<path style=" stroke:none;fill-rule:evenodd;fill:rgb(94.900513%,39.99939%,21.176147%);fill-opacity:1;" d="M 562.492188 180.433594 C 562.492188 189.707031 570.238281 196.867188 579.539063 196.867188 L 583.335938 196.867188 C 591.660156 196.867188 597.859375 191.480469 597.859375 182.960938 L 597.859375 180.433594 C 597.859375 173.71875 590.097656 167.160156 583.335938 167.160156 L 580.804688 167.160156 C 573.144531 167.160156 562.492188 172.441406 562.492188 180.433594 "/>
<path style=" stroke:none;fill-rule:evenodd;fill:rgb(94.900513%,39.99939%,21.176147%);fill-opacity:1;" d="M 255.523438 197.296875 L 255.523438 197.925781 C 255.523438 204.722656 264.195313 212.464844 271.3125 212.464844 L 277.632813 212.464844 C 284.136719 212.464844 290.890625 206.609375 290.890625 199.824219 L 290.890625 196.035156 C 290.890625 189.691406 283.347656 182.761719 277.632813 182.761719 L 276.363281 182.761719 C 266.128906 182.761719 255.523438 186.941406 255.523438 197.296875 "/>
<path style=" stroke:none;fill-rule:evenodd;fill:rgb(100%,100%,100%);fill-opacity:1;" d="M 94.464844 137.886719 L 94.464844 242.800781 L 98.878906 242.800781 C 109.078125 242.800781 120.320313 236.800781 125.582031 231.59375 C 135.304688 221.949219 133.617188 219.660156 133.617188 201.71875 C 133.617188 189.078125 133.675781 176.433594 133.617188 163.800781 C 133.597656 157.089844 134.222656 152.371094 137.292969 148.511719 C 139.328125 145.941406 145.304688 141.050781 149.40625 141.050781 L 153.832031 141.050781 C 161.320313 141.050781 166.464844 149.96875 166.464844 157.476563 L 166.464844 242.800781 L 170.882813 242.800781 C 180 242.800781 189.878906 239.6875 193.632813 234.59375 C 197.683594 229.125 204.355469 223.039063 204.355469 213.730469 L 204.355469 144.210938 C 204.355469 124.566406 190.65625 109.449219 170.257813 109.449219 L 161.410156 109.449219 C 153.660156 109.449219 148.765625 110.121094 144.089844 113.609375 C 139.664063 116.910156 136.421875 122.742188 133.617188 124.613281 L 133.617188 109.449219 L 130.460938 109.449219 C 111.679688 109.449219 94.464844 119.390625 94.464844 137.886719 "/>
<path style=" stroke:none;fill-rule:evenodd;fill:rgb(100%,100%,100%);fill-opacity:1;" d="M 562.492188 196.035156 C 562.492188 188.039063 573.144531 182.761719 580.804688 182.761719 L 583.335938 182.761719 C 590.097656 182.761719 597.859375 189.316406 597.859375 196.035156 L 597.859375 198.5625 C 597.859375 207.078125 591.660156 212.464844 583.335938 212.464844 L 579.539063 212.464844 C 570.238281 212.464844 562.492188 205.304688 562.492188 196.035156 Z M 535.957031 146.734375 C 544.507813 141.015625 551.410156 133.464844 565.644531 133.464844 L 575.121094 133.464844 C 581.730469 133.464844 590.863281 137.347656 593.820313 141.296875 C 599.1875 148.457031 597.859375 152.859375 597.859375 164.433594 C 590.0625 160.304688 582.710938 155.582031 570.699219 155.582031 L 565.644531 155.582031 C 545.332031 155.582031 522.695313 173.460938 522.695313 193.5 L 522.695313 194.769531 C 522.695313 223.964844 538.527344 244.0625 566.90625 244.0625 L 569.445313 244.0625 C 578.191406 244.0625 584.050781 243.09375 589.878906 239.871094 C 594.175781 237.488281 599.042969 229.796875 602.28125 227.636719 C 603.320313 231.507813 610.460938 238.542969 614.050781 240.496094 C 618.328125 242.820313 629.128906 244.0625 635.757813 244.0625 L 637.648438 244.0625 L 637.648438 162.539063 C 637.648438 142.789063 633.496094 134.246094 624.914063 122.824219 C 618.070313 113.703125 605.921875 105.027344 590.28125 105.027344 L 582.695313 105.027344 C 554.765625 105.027344 535.957031 118.488281 535.957031 146.734375 "/>
<path style=" stroke:none;fill-rule:evenodd;fill:rgb(100%,100%,100%);fill-opacity:1;" d="M 255.523438 197.296875 C 255.523438 186.941406 266.128906 182.761719 276.363281 182.761719 L 277.632813 182.761719 C 283.347656 182.761719 290.890625 189.691406 290.890625 196.035156 L 290.890625 199.824219 C 290.890625 206.609375 284.136719 212.464844 277.632813 212.464844 L 271.3125 212.464844 C 264.195313 212.464844 255.523438 204.722656 255.523438 197.925781 Z M 228.996094 146.734375 C 237.691406 142.132813 243.738281 133.464844 258.054688 133.464844 L 267.523438 133.464844 C 275.015625 133.464844 283.433594 137.042969 286.9375 141.214844 C 292.210938 147.453125 290.890625 153.664063 290.890625 164.433594 C 281.011719 159.199219 276.015625 155.582031 260.578125 155.582031 L 259.3125 155.582031 C 237.628906 155.582031 215.730469 173.335938 215.730469 195.398438 C 215.730469 223.273438 231.855469 244.0625 258.679688 244.0625 L 263.101563 244.0625 C 271.324219 244.0625 277.40625 242.917969 282.910156 239.871094 C 287.722656 237.207031 292.003906 229.847656 295.320313 227.636719 C 296.273438 231.210938 302.816406 237.808594 305.914063 239.78125 C 309.625 242.144531 319.019531 244.0625 325.003906 244.0625 L 330.6875 244.0625 L 330.6875 158.113281 C 330.6875 130.644531 310.214844 105.027344 282.683594 105.027344 L 274.46875 105.027344 C 247.570313 105.027344 228.996094 119.4375 228.996094 146.734375 "/>
<path style=" stroke:none;fill-rule:evenodd;fill:rgb(100%,100%,100%);fill-opacity:1;" d="M 350.898438 244.0625 L 361.007813 244.0625 C 374.257813 244.0625 390.058594 231.328125 390.058594 218.152344 L 390.058594 108.816406 L 350.898438 108.816406 L 350.898438 244.0625 "/>
<path style=" stroke:none;fill-rule:evenodd;fill:rgb(100%,100%,100%);fill-opacity:1;" d="M 654.714844 150.527344 L 654.714844 154.953125 C 654.714844 183.207031 718.496094 198.070313 718.496094 207.40625 L 718.496094 208.039063 C 718.496094 213.964844 708.554688 216.257813 702.082031 216.257813 L 698.921875 216.257813 C 689.9375 216.257813 678.902344 212.890625 672.128906 210.199219 C 661.371094 205.917969 659.40625 202.558594 651.550781 197.296875 C 651.550781 211.394531 659.246094 226.128906 667.171875 232.851563 C 676.539063 240.796875 688.855469 245.957031 705.867188 245.957031 C 731.246094 245.957031 757.65625 230.109375 757.65625 206.144531 L 757.65625 202.351563 C 757.65625 181.867188 743.460938 172.699219 731.132813 164.433594 C 725.085938 162.414063 718.757813 157.289063 712.816406 154.320313 C 711.011719 153.417969 695.121094 146.90625 695.121094 146.105469 C 695.121094 137.492188 702.824219 134.730469 711.554688 134.730469 L 712.1875 134.730469 C 719.8125 134.730469 729.832031 137.84375 734.929688 140.414063 C 743.414063 144.683594 745.730469 147.179688 752.605469 151.796875 C 752.605469 120.628906 735.683594 106.921875 704.609375 106.921875 L 700.816406 106.921875 C 687.105469 106.921875 676.371094 113.324219 668.765625 119.722656 C 660.226563 126.902344 654.714844 135.074219 654.714844 150.527344 "/>
</g>
</svg>
