<svg xmlns="http://www.w3.org/2000/svg" width="60.855" height="88.926" viewBox="0 0 60.855 88.926">
  <g id="SIM_Card_Requisition" data-name="SIM Card Requisition" transform="translate(-887.708 -363.801)">
    <g id="Group_2107" data-name="Group 2107" transform="translate(888.209 424.409)">
      <g id="Group_2064" data-name="Group 2064" transform="translate(0 0)">
        <path id="Path_724" data-name="Path 724" d="M42.744,574.981c-.125-.389-.494-.474-1.062-.218a.816.816,0,0,1,.048-.2c1.173-2.058,2.329-4.126,3.534-6.165a8.333,8.333,0,0,1,2.181-2.566,6.218,6.218,0,0,1,2.917-1.076,1.261,1.261,0,0,1,.375.066l1.021,1a.951.951,0,0,1-.313.094,5.375,5.375,0,0,0-2.786.568,4.884,4.884,0,0,0-1.95,1.905c-.868,1.4-1.681,2.829-2.51,4.251-.412.706-.8,1.425-1.213,2.132-.05.086-.165.133-.249.2Z" transform="translate(-39.842 -548.956)" fill="#4f5661" stroke="#4f5661" stroke-width="1"/>
        <g id="Group_2063" data-name="Group 2063">
          <path id="Path_725" data-name="Path 725" d="M67.119,448.136l4.259-1.565.082.216a1.853,1.853,0,0,0,.187-.1c.089-.062.167-.144.261-.2s.224-.116.262-.084a.387.387,0,0,1,.138.293,3.507,3.507,0,0,1-.231.829c-.035.078-.252.1-.386.1-.071,0-.143-.1-.3-.214.226.367.016.423-.2.5-1.664.61-3.329,1.219-4.987,1.847-.438.166-.852.4-1.274.606a10.257,10.257,0,0,1-3.291.867,34.729,34.729,0,0,1-6.051.275c-1.4-.063-2.8-.242-4.194-.377-.362-.035-.721-.091-1.08-.152a1.21,1.21,0,0,1-.455-.142.545.545,0,0,1-.222-.668.511.511,0,0,1,.552-.387c.592.058,1.182.14,1.771.221a32.382,32.382,0,0,0,6.714.283c1.358-.1,2.715-.248,4.062-.444a5.753,5.753,0,0,0,2.42-.99,1.851,1.851,0,0,0,.673-2.307,2.382,2.382,0,0,0-2.347-1.635c-2.741,0-5.482.006-8.224,0-.544,0-1.088-.06-1.63-.115a.84.84,0,0,1-.428-.182,6.384,6.384,0,0,1-.786-.753.649.649,0,0,0-.8-.238c-.319.134-.58-.012-.869-.075a2.556,2.556,0,0,0-.609,0,1.5,1.5,0,0,1-.507.015c-1.435-.514-2.862-1.047-4.292-1.573a8.932,8.932,0,0,0-6.142-.059,20.362,20.362,0,0,0-7.812,4.734c-1.123,1.1-2.125,2.324-3.173,3.5a.555.555,0,0,1-.647.2c-.171-.072-.384-.27-.4-.428a.987.987,0,0,1,.229-.64c.569-.7,1.17-1.366,1.76-2.045a22.011,22.011,0,0,1,7.114-5.414A15.186,15.186,0,0,1,41,440.284a8.065,8.065,0,0,1,3.543.239c2.145.707,4.263,1.5,6.391,2.256a13.1,13.1,0,0,0,2.96.85,12.327,12.327,0,0,0,1.3.09c2.751.008,5.5.031,8.254-.007a3.639,3.639,0,0,1,3.66,3.019A9.983,9.983,0,0,1,67.119,448.136Zm4.113-.633.076-.055-.229-.456-.259.3Z" transform="translate(-27.169 -440.195)" fill="#4f5661" stroke="#4f5661" stroke-width="1"/>
          <path id="Path_726" data-name="Path 726" d="M126.27,481.5a1.035,1.035,0,0,1,.353-.012c1.827.614,3.649,1.239,5.475,1.858,2.714.92,5.416,1.878,8.149,2.74a7.957,7.957,0,0,0,6.413-.7c2.825-1.547,5.638-3.117,8.456-4.676q3.368-1.862,6.737-3.721c1.459-.806,2.91-1.625,4.378-2.412a2.348,2.348,0,0,0,1.19-2.841,2.276,2.276,0,0,0-2.985-1.428c-1.048.366-2.085.764-3.127,1.149-.644.237-1.286.479-1.931.712-.375.135-.755.258-1.157.394-.115-.435.578-.82-.041-1.254.353-.05.568-.324.878-.127.034.022.175-.064.218-.131.134-.208.289-.156.437-.048.19.137.117.306.008.45-.1.128-.223.233-.326.356a.418.418,0,0,0-.045.156l.077.067c.188-.189.385-.37.562-.569.233-.263.09-.5-.122-.724l.053-.085.562.056.1-.265c1.111-.408,2.251-.808,3.377-1.245a3.5,3.5,0,0,1,4.619,2.23,3.436,3.436,0,0,1-1.589,4.073c-2.657,1.5-5.337,2.952-8.006,4.427q-3.566,1.971-7.131,3.944c-1.7.941-3.389,1.919-5.121,2.805a9.111,9.111,0,0,1-5,.913,16.346,16.346,0,0,1-3.85-1.028q-4.36-1.47-8.718-2.946-1.763-.6-3.53-1.181c-.142-.047-.234-.1-.086-.24Z" transform="translate(-113.008 -465.312)" fill="#4f5661" stroke="#4f5661" stroke-width="1"/>
          <path id="Path_727" data-name="Path 727" d="M37.3,644.336a1.358,1.358,0,0,1-.078.375c-.233.436-.485.861-.712,1.259l-1.054-.555c.172-.3.348-.654.562-.979a.989.989,0,0,1,1.082-.154.769.769,0,0,0,.208.062Z" transform="translate(-34.402 -618.32)" fill="#4f5661" stroke="#4f5661" stroke-width="1"/>
        </g>
        <path id="Path_728" data-name="Path 728" d="M114.115,565.634l-1.021-1c.085-.034.174-.1.254-.1q.967.106,1.93.245c.068.01.122.115.182.176l-.721.7A.388.388,0,0,1,114.115,565.634Z" transform="translate(-102.198 -548.766)" fill="#4f5661" stroke="#4f5661" stroke-width="1"/>
        <path id="Path_729" data-name="Path 729" d="M209.119,467.482c.184.025.407-.008.544.086a.948.948,0,0,0,.816.075.755.755,0,0,1,.837.3,2.217,2.217,0,0,0,.24.27c.074.074.157.138.236.206l-.05.111-2.642-.889Z" transform="translate(-186.03 -464.022)" fill="#4f5661" stroke="#4f5661" stroke-width="1"/>
        <path id="Path_730" data-name="Path 730" d="M371.815,494.312l-.412-.213.259-.3.228.456Z" transform="translate(-327.752 -487.003)" fill="#4f5661" stroke="#4f5661" stroke-width="1"/>
      </g>
    </g>
    <g id="simcard" transform="translate(904.165 363.801)">
      <path id="Path_817" data-name="Path 817" d="M46.412,65.866A3.991,3.991,0,0,0,50.4,61.875v-43.9L40.426,8H12.491A3.991,3.991,0,0,0,8.5,11.991V61.875a3.991,3.991,0,0,0,3.991,3.991ZM17.479,51.9V37.93H41.423V57.884H17.479Zm0,0" transform="translate(-7.002 -7.002)" fill="#d3e5ef"/>
      <g id="Group_2133" data-name="Group 2133" transform="translate(0.5)">
        <path id="Path_818" data-name="Path 818" d="M39.41,59.861H5.488A4.994,4.994,0,0,1,.5,54.872V4.988A4.994,4.994,0,0,1,5.488,0H33.423a1,1,0,0,1,.705.292l9.977,9.977a1,1,0,0,1,.292.705v43.9A4.994,4.994,0,0,1,39.41,59.861ZM5.488,2A2.993,2.993,0,0,0,2.5,4.988V54.872a2.993,2.993,0,0,0,2.993,2.993H39.41A2.993,2.993,0,0,0,42.4,54.872V11.388L33.01,2Zm0,0" transform="translate(-0.5)" fill="#4f5661"/>
        <path id="Path_819" data-name="Path 819" d="M97.442,240H73.5a1,1,0,0,0-1,1v19.954a1,1,0,0,0,1,1H97.442a1,1,0,0,0,1-1V241A1,1,0,0,0,97.442,240Zm-1,5.986H92.454V242h3.991Zm-5.986,0H86.468V242h3.991Zm-5.986,0H80.481V242h3.991Zm-2,4.988a2.993,2.993,0,0,1-2.993,2.993H74.5v-5.986h4.988A2.993,2.993,0,0,1,82.477,250.974ZM74.5,242h3.991v3.991H74.5Zm0,13.968h3.991v3.991H74.5Zm5.986,0h3.991v3.991H80.481Zm5.986,3.991v-3.991h3.991v3.991Zm5.986,0v-4.988a1,1,0,0,0-1-1H83.449a4.889,4.889,0,0,0,0-5.986h13v11.972Zm0,0" transform="translate(-63.521 -210.07)" fill="#4f5661"/>
      </g>
    </g>
  </g>
</svg>
