<svg xmlns="http://www.w3.org/2000/svg" width="81.758" height="86.945" viewBox="0 0 81.758 86.945">
  <g id="Technician_Onboarding_" data-name="Technician Onboarding " transform="translate(-222.837 -168.578)">
    <path id="Path_750" data-name="Path 750" d="M281.1,170.671c4.017-2.12,12.763-2.124,16.83-.009-3.191,5.566-4.143,8.79-3.72,13.27.152-.334.307-.667.454-1a24.687,24.687,0,0,1,6.624-9.5,1.457,1.457,0,0,1,2.126-.045,26.346,26.346,0,0,1,10.973,18.229H264.7a24.744,24.744,0,0,1,1.935-7.157,26.216,26.216,0,0,1,9.038-11.111,1.462,1.462,0,0,1,2.125.12,24.366,24.366,0,0,1,6.467,9.208c.165.376.32.757.49,1.16C285.719,181.493,284.085,175.645,281.1,170.671Z" transform="translate(-32.037 0)" fill="#d3e5ef" stroke="#4f5661" stroke-width="1"/>
    <path id="Path_751" data-name="Path 751" d="M275.206,280.9q-13.1,0-26.206,0c-2.147,0-2.657-.511-2.659-2.643,0-1.012-.014-2.025.008-3.037a1.865,1.865,0,0,1,2.094-2.068c.225-.007.45,0,.675,0h52.412c2.217,0,2.722.5,2.725,2.7,0,1.012.016,2.025,0,3.037a1.846,1.846,0,0,1-1.938,2.007c-.336.025-.675.01-1.012.01Z" transform="translate(-17.809 -80.64)" fill="#d3e5ef" stroke="#4f5661" stroke-width="1"/>
    <path id="Path_752" data-name="Path 752" d="M422.836,454.1l-6.256-3.021c.425-.9.874-1.715,1.185-2.579a1.6,1.6,0,0,0-.146-1.161c-.637-1.161-1.468-1.922-2.942-1.225a7.909,7.909,0,0,1-1.74.365l-1.547-6.721a27.462,27.462,0,0,0,2.749-.686c.367-.129.849-.56.879-.89.072-.782,1.019-1.643-.149-2.4a27.466,27.466,0,0,1-2.18-1.735l4.335-5.444c.706.562,1.341,1.081,1.99,1.58.45.346.848.9,1.538.382s1.995-.441,1.748-1.907a15.508,15.508,0,0,1-.023-2.458h6.956a25.891,25.891,0,0,0,.032,2.77,1.417,1.417,0,0,0,.683,1.041c.719.235,1.312,1.311,2.275.417.683-.634,1.448-1.179,2.26-1.832l4.346,5.451c-.829.669-1.612,1.24-2.311,1.9a1.531,1.531,0,0,0-.332,1.01c-.019,1.64.9,2.36,2.468,2.455a9.5,9.5,0,0,1,1.451.337l-1.523,6.736c-.91-.2-1.777-.347-2.624-.574-.624-.168-.941.061-1.408.5a2.211,2.211,0,0,0-.261,3.306,9.052,9.052,0,0,1,.636,1.354l-6.239,3.023c-.419-.845-.842-1.624-1.193-2.435-.238-.55-.523-.861-1.178-.736a3.148,3.148,0,0,1-1.119-.007c-.646-.116-.948.179-1.184.737C423.68,452.445,423.272,453.2,422.836,454.1ZM419.914,440a5.846,5.846,0,0,0,5.75,5.957,5.87,5.87,0,1,0-5.75-5.957Z" transform="translate(-145.707 -199.241)" fill="#d3e5ef" stroke="#4f5661" stroke-width="1"/>
    <path id="Path_753" data-name="Path 753" d="M324.036,505.546l4.122-.868-1.871,3.986H298.877c0-2.4-.1-4.756.035-7.094a2.93,2.93,0,0,1,3.044-2.615c6.6-.025,13.192,0,19.788-.023.613,0,.832.209.955.795C323.1,501.625,323.563,503.511,324.036,505.546Z" transform="translate(-58.496 -255.599)" fill="#d3e5ef" stroke="#4f5661" stroke-width="1"/>
    <path id="Path_754" data-name="Path 754" d="M240.314,448.918l2.168,8.256a4.385,4.385,0,0,1-.515.239,6.132,6.132,0,0,0-4.6,6.173c-.008,2.059,0,4.117,0,6.28H223.353C223.631,461.076,230.441,451.621,240.314,448.918Z" transform="translate(0 -216.844)" fill="#d3e5ef" stroke="#4f5661" stroke-width="1"/>
    <path id="Path_755" data-name="Path 755" d="M315.733,311.27h3.053c-.246,1.971-.389,3.9-.739,5.783a29.721,29.721,0,0,1-8.674,16.521c-8.6,8.219-19.941,7.937-28.181-.671a28.956,28.956,0,0,1-5.76-8.64,34.977,34.977,0,0,1-2.851-12.937h2.805c.261,2.075.395,4.17.807,6.209a26.591,26.591,0,0,0,8.464,14.757c6.673,6.013,15.31,5.933,22.087-.1a28.053,28.053,0,0,0,8.922-20.149C315.667,311.822,315.7,311.6,315.733,311.27Z" transform="translate(-38.145 -110.183)" fill="#d3e5ef" stroke="#707070" stroke-width="1"/>
    <path id="Path_756" data-name="Path 756" d="M335.281,444.588l-3.224,4.068,3.291,2.65-4.08.992.238,1.48H313.788l-2.384-8.923a21.76,21.76,0,0,1,2.333-.257C320.845,444.58,327.953,444.588,335.281,444.588Z" transform="translate(-68.23 -213.488)" fill="#d3e5ef" stroke="#4f5661" stroke-width="1"/>
    <path id="Path_757" data-name="Path 757" d="M530.62,370.758c2.454,5.514-.792,10.245-6.765,9.992a1.615,1.615,0,0,0-1.16.549c-.758.967-1.41,2.018-2.167,3.13l-3.719-4.657c.038-.147.035-.235.077-.286a3.988,3.988,0,0,0,.743-4.218c-1.321-4.244,1.443-8.871,6.615-8.429.287.025.578,0,1.134,0-1.075,1.284-1.977,2.456-2.977,3.536-1.591,1.717-1.526,1.655-.67,3.817a3.174,3.174,0,0,0,3.1,2.239c1.764.181,2.669-.3,3.375-1.824a39.651,39.651,0,0,1,2.162-3.677C530.4,370.875,530.487,370.848,530.62,370.758Z" transform="translate(-227.395 -153.219)" fill="#d3e5ef" stroke="#4f5661" stroke-width="1"/>
    <path id="Path_758" data-name="Path 758" d="M449.255,467.617a5.866,5.866,0,0,1,5.935-5.781,5.87,5.87,0,1,1-.184,11.739A5.846,5.846,0,0,1,449.255,467.617Zm5.8,3.686a3.6,3.6,0,1,0-3.572-3.692A3.584,3.584,0,0,0,455.058,471.3Z" transform="translate(-175.048 -226.853)" fill="#fff"/>
    <path id="Path_759" data-name="Path 759" d="M462.74,479.124a3.6,3.6,0,1,1,3.661-3.609A3.573,3.573,0,0,1,462.74,479.124Z" transform="translate(-182.729 -234.675)" fill="#4f5661"/>
  </g>
</svg>
